<svg id="Layer_1" data-name="Layer 1" xmlns="http://www.w3.org/2000/svg" xmlns:xlink="http://www.w3.org/1999/xlink" viewBox="0 0 1920 1080"><defs><style>.cls-1{fill:url(#linear-gradient);}.cls-2{fill:url(#linear-gradient-2);}.cls-3{fill:url(#linear-gradient-3);}.cls-4{fill:url(#linear-gradient-4);}.cls-5{fill:url(#linear-gradient-5);}.cls-6{fill:url(#linear-gradient-6);}.cls-7{fill:url(#linear-gradient-7);}.cls-8{fill:url(#linear-gradient-8);}.cls-9{fill:url(#linear-gradient-9);}.cls-10{fill:url(#linear-gradient-10);}.cls-11{fill:url(#linear-gradient-11);}.cls-12{fill:url(#linear-gradient-12);}.cls-13{fill:url(#linear-gradient-13);}.cls-14{fill:url(#linear-gradient-14);}.cls-15{fill:url(#linear-gradient-15);}.cls-16{fill:url(#linear-gradient-16);}.cls-17{fill:url(#linear-gradient-17);}.cls-18{fill:url(#linear-gradient-18);}.cls-19{fill:url(#linear-gradient-19);}.cls-20{fill:url(#linear-gradient-20);}.cls-21{fill:url(#linear-gradient-21);}.cls-22{fill:url(#linear-gradient-22);}.cls-23{fill:url(#linear-gradient-23);}.cls-24{fill:url(#linear-gradient-24);}.cls-25{fill:url(#linear-gradient-25);}.cls-26{fill:url(#linear-gradient-26);}.cls-27{fill:url(#linear-gradient-27);}.cls-28{fill:url(#linear-gradient-28);}.cls-29{fill:url(#linear-gradient-29);}.cls-30{fill:url(#linear-gradient-30);}.cls-31{fill:url(#linear-gradient-31);}.cls-32{fill:url(#linear-gradient-32);}.cls-33{fill:url(#linear-gradient-33);}.cls-34{fill:url(#linear-gradient-34);}.cls-35{fill:url(#linear-gradient-35);}.cls-36{fill:url(#linear-gradient-36);}.cls-37{fill:url(#linear-gradient-37);}.cls-38{fill:#7e22ce;}.cls-39{opacity:0.13;}.cls-40{fill:url(#linear-gradient-38);}.cls-41{fill:url(#linear-gradient-39);}.cls-42{fill:url(#linear-gradient-40);}.cls-43{fill:url(#linear-gradient-41);}.cls-44{fill:url(#linear-gradient-42);}</style><linearGradient id="linear-gradient" x1="102.1" y1="565.21" x2="466.29" y2="565.21" gradientTransform="matrix(1, 0, 0, -1, 0, 1082)" gradientUnits="userSpaceOnUse"><stop offset="0" stop-color="#fff" stop-opacity="0.1"/><stop offset="1" stop-color="#fff"/></linearGradient><linearGradient id="linear-gradient-2" x1="1530.59" y1="590.71" x2="1530.59" y2="954.22" gradientTransform="matrix(1, 0, 0, -1, 0, 1082)" gradientUnits="userSpaceOnUse"><stop offset="0" stop-color="#fd6600"/><stop offset="0" stop-color="#fd6500" stop-opacity="0.99"/><stop offset="0.14" stop-color="#fe4b00" stop-opacity="0.73"/><stop offset="0.27" stop-color="#fe3400" stop-opacity="0.51"/><stop offset="0.39" stop-color="#fe2100" stop-opacity="0.33"/><stop offset="0.51" stop-color="#ff1300" stop-opacity="0.18"/><stop offset="0.62" stop-color="#ff0800" stop-opacity="0.08"/><stop offset="0.72" stop-color="#ff0200" stop-opacity="0.02"/><stop offset="0.8" stop-color="red" stop-opacity="0"/></linearGradient><linearGradient id="linear-gradient-3" x1="1209.59" y1="165.71" x2="1209.59" y2="529.22" xlink:href="#linear-gradient-2"/><linearGradient id="linear-gradient-4" x1="1772.8" y1="731.99" x2="1772.8" y2="1443.69" gradientTransform="matrix(1, 0, 0, -1, 0, 1082)" gradientUnits="userSpaceOnUse"><stop offset="0" stop-color="#fd00d4"/><stop offset="0" stop-color="#fb00d4" stop-opacity="0.99"/><stop offset="0.14" stop-color="#b900e0" stop-opacity="0.73"/><stop offset="0.27" stop-color="#8100e9" stop-opacity="0.51"/><stop offset="0.39" stop-color="#5300f1" stop-opacity="0.33"/><stop offset="0.51" stop-color="#2f00f7" stop-opacity="0.18"/><stop offset="0.62" stop-color="#1500fb" stop-opacity="0.08"/><stop offset="0.72" stop-color="#0500fe" stop-opacity="0.02"/><stop offset="0.8" stop-color="blue" stop-opacity="0"/></linearGradient><linearGradient id="linear-gradient-5" x1="614.79" y1="947.98" x2="614.79" y2="1659.68" xlink:href="#linear-gradient-4"/><linearGradient id="linear-gradient-6" x1="1238.42" y1="860.27" x2="1238.42" y2="1449.51" gradientTransform="matrix(1, 0, 0, -1, 0, 1082)" gradientUnits="userSpaceOnUse"><stop offset="0" stop-color="aqua"/><stop offset="0.01" stop-color="#03fbff" stop-opacity="0.98"/><stop offset="0.12" stop-color="#2eb9ff" stop-opacity="0.73"/><stop offset="0.23" stop-color="#5381ff" stop-opacity="0.51"/><stop offset="0.34" stop-color="#7153ff" stop-opacity="0.32"/><stop offset="0.44" stop-color="#882fff" stop-opacity="0.18"/><stop offset="0.53" stop-color="#9915ff" stop-opacity="0.08"/><stop offset="0.62" stop-color="#a305ff" stop-opacity="0.02"/><stop offset="0.68" stop-color="#a700ff" stop-opacity="0"/></linearGradient><linearGradient id="linear-gradient-7" x1="831.99" y1="818.86" x2="831.99" y2="1496.71" gradientTransform="matrix(1, 0, 0, -1, 0, 1082)" gradientUnits="userSpaceOnUse"><stop offset="0" stop-color="#6dff01"/><stop offset="0.06" stop-color="#66f311" stop-opacity="0.94"/><stop offset="0.72" stop-color="#1d70ba" stop-opacity="0.27"/><stop offset="1" stop-color="#003bff" stop-opacity="0"/></linearGradient><linearGradient id="linear-gradient-8" x1="1631.18" y1="347.95" x2="1631.18" y2="797.96" gradientTransform="matrix(1, 0, 0, -1, 0, 1082)" gradientUnits="userSpaceOnUse"><stop offset="0.17" stop-color="aqua"/><stop offset="0.17" stop-color="#03fbff" stop-opacity="0.98"/><stop offset="0.31" stop-color="#2eb9ff" stop-opacity="0.73"/><stop offset="0.45" stop-color="#5381ff" stop-opacity="0.51"/><stop offset="0.58" stop-color="#7153ff" stop-opacity="0.32"/><stop offset="0.7" stop-color="#882fff" stop-opacity="0.18"/><stop offset="0.81" stop-color="#9915ff" stop-opacity="0.08"/><stop offset="0.92" stop-color="#a305ff" stop-opacity="0.02"/><stop offset="1" stop-color="#a700ff" stop-opacity="0"/></linearGradient><linearGradient id="linear-gradient-9" x1="961.49" y1="591.6" x2="961.49" y2="1041.61" xlink:href="#linear-gradient-4"/><linearGradient id="linear-gradient-10" x1="1315.23" y1="741.98" x2="1315.23" y2="1056.24" xlink:href="#linear-gradient-7"/><linearGradient id="linear-gradient-11" x1="920.23" y1="143.98" x2="920.23" y2="458.24" xlink:href="#linear-gradient-7"/><linearGradient id="linear-gradient-12" x1="1083.7" y1="268.28" x2="1083.7" y2="752.05" xlink:href="#linear-gradient-7"/><linearGradient id="linear-gradient-13" x1="1761.7" y1="171.28" x2="1761.7" y2="655.05" xlink:href="#linear-gradient-7"/><linearGradient id="linear-gradient-14" x1="1157.01" y1="571.35" x2="1157.01" y2="783.74" gradientTransform="matrix(1, 0, 0, -1, 0, 1082)" gradientUnits="userSpaceOnUse"><stop offset="0" stop-color="#ffff01"/><stop offset="0.01" stop-color="#fffb05" stop-opacity="0.98"/><stop offset="0.14" stop-color="#ffb946" stop-opacity="0.73"/><stop offset="0.27" stop-color="#ff817f" stop-opacity="0.51"/><stop offset="0.39" stop-color="#ff53ad" stop-opacity="0.32"/><stop offset="0.51" stop-color="#ff2fd0" stop-opacity="0.18"/><stop offset="0.62" stop-color="#ff15ea" stop-opacity="0.08"/><stop offset="0.72" stop-color="#ff05fa" stop-opacity="0.02"/><stop offset="0.8" stop-color="#f0f" stop-opacity="0"/></linearGradient><linearGradient id="linear-gradient-15" x1="1411.82" y1="505.65" x2="1411.82" y2="826.26" xlink:href="#linear-gradient-4"/><linearGradient id="linear-gradient-16" x1="1314.82" y1="161.65" x2="1314.82" y2="482.26" xlink:href="#linear-gradient-4"/><linearGradient id="linear-gradient-17" x1="55.42" y1="655.27" x2="55.42" y2="1244.51" xlink:href="#linear-gradient-6"/><linearGradient id="linear-gradient-18" x1="132.22" y1="536.98" x2="132.22" y2="851.24" xlink:href="#linear-gradient-7"/><linearGradient id="linear-gradient-19" x1="228.82" y1="300.65" x2="228.82" y2="621.26" xlink:href="#linear-gradient-4"/><linearGradient id="linear-gradient-20" x1="1040.98" y1="963.84" x2="1040.98" y2="1176.23" xlink:href="#linear-gradient-2"/><linearGradient id="linear-gradient-21" x1="428.98" y1="366.84" x2="428.98" y2="579.23" xlink:href="#linear-gradient-2"/><linearGradient id="linear-gradient-22" x1="820.44" y1="456.11" x2="820.44" y2="668.53" gradientTransform="matrix(1, 0, 0, -1, 0, 1082)" gradientUnits="userSpaceOnUse"><stop offset="0" stop-color="aqua"/><stop offset="0.01" stop-color="#03fbff" stop-opacity="0.98"/><stop offset="0.14" stop-color="#2eb9ff" stop-opacity="0.73"/><stop offset="0.27" stop-color="#5381ff" stop-opacity="0.51"/><stop offset="0.39" stop-color="#7153ff" stop-opacity="0.32"/><stop offset="0.51" stop-color="#882fff" stop-opacity="0.18"/><stop offset="0.62" stop-color="#9915ff" stop-opacity="0.08"/><stop offset="0.72" stop-color="#a305ff" stop-opacity="0.02"/><stop offset="0.79" stop-color="#a700ff" stop-opacity="0"/></linearGradient><linearGradient id="linear-gradient-23" x1="1530.43" y1="162.11" x2="1530.43" y2="374.53" xlink:href="#linear-gradient-22"/><linearGradient id="linear-gradient-24" x1="744.11" y1="667.55" x2="744.11" y2="879.96" xlink:href="#linear-gradient-14"/><linearGradient id="linear-gradient-25" x1="329.1" y1="88.54" x2="329.1" y2="300.96" xlink:href="#linear-gradient-14"/><linearGradient id="linear-gradient-26" x1="321.99" y1="936.86" x2="321.99" y2="1614.71" xlink:href="#linear-gradient-7"/><linearGradient id="linear-gradient-27" x1="451.49" y1="709.6" x2="451.49" y2="1159.61" xlink:href="#linear-gradient-4"/><linearGradient id="linear-gradient-28" x1="556.7" y1="386.28" x2="556.7" y2="870.05" xlink:href="#linear-gradient-7"/><linearGradient id="linear-gradient-29" x1="55.7" y1="80.27" x2="55.7" y2="564.05" xlink:href="#linear-gradient-7"/><linearGradient id="linear-gradient-30" x1="725.7" y1="124.28" x2="725.7" y2="608.05" xlink:href="#linear-gradient-7"/><linearGradient id="linear-gradient-31" x1="647.01" y1="689.35" x2="647.01" y2="901.74" xlink:href="#linear-gradient-14"/><linearGradient id="linear-gradient-32" x1="310.43" y1="574.11" x2="310.43" y2="786.53" xlink:href="#linear-gradient-22"/><linearGradient id="linear-gradient-33" x1="488.44" y1="109.11" x2="488.44" y2="321.53" xlink:href="#linear-gradient-22"/><linearGradient id="linear-gradient-34" x1="234.1" y1="785.55" x2="234.1" y2="997.96" xlink:href="#linear-gradient-14"/><linearGradient id="linear-gradient-35" x1="1851.64" y1="497.51" x2="1851.64" y2="947.52" xlink:href="#linear-gradient-7"/><linearGradient id="linear-gradient-36" x1="1761.92" y1="375.64" x2="1761.92" y2="588.04" xlink:href="#linear-gradient-14"/><linearGradient id="linear-gradient-37" x1="1576.73" y1="963.17" x2="1576.73" y2="1175.56" xlink:href="#linear-gradient-14"/><linearGradient id="linear-gradient-38" x1="96.21" y1="347.23" x2="423.81" y2="347.23" xlink:href="#linear-gradient"/><linearGradient id="linear-gradient-39" x1="1248.21" y1="383.23" x2="1575.81" y2="383.23" xlink:href="#linear-gradient"/><linearGradient id="linear-gradient-40" x1="295.86" y1="835.23" x2="708.81" y2="835.23" xlink:href="#linear-gradient"/><linearGradient id="linear-gradient-41" x1="1501.51" y1="851.24" x2="1914.46" y2="851.24" xlink:href="#linear-gradient"/><linearGradient id="linear-gradient-42" x1="688.14" y1="506.1" x2="1091.66" y2="506.1" xlink:href="#linear-gradient"/></defs><rect class="cls-1" x="102.1" y="334.69" width="364.19" height="364.19"/><path class="cls-2" d="M1530.59,491.29h0a15.1,15.1,0,0,1-15.11-15.09V142.89a15.12,15.12,0,0,1,15.11-15.11h0a15.13,15.13,0,0,1,15.11,15.11V476.18A15.11,15.11,0,0,1,1530.59,491.29Z"/><path class="cls-3" d="M1209.59,916.29h0a15.1,15.1,0,0,1-15.11-15.09V567.89a15.12,15.12,0,0,1,15.11-15.11h0a15.13,15.13,0,0,1,15.11,15.11V901.18A15.11,15.11,0,0,1,1209.59,916.29Z"/><rect class="cls-4" x="1743.21" y="-361.69" width="59.17" height="711.7" rx="18.07"/><rect class="cls-5" x="585.21" y="-577.68" width="59.17" height="711.7" rx="18.07"/><path class="cls-6" d="M1238.43,221.73h0a24.5,24.5,0,0,1-24.5-24.49V-343a24.51,24.51,0,0,1,24.5-24.49h0A24.51,24.51,0,0,1,1262.92-343V197.29A24.49,24.49,0,0,1,1238.43,221.73Z"/><path class="cls-7" d="M832,263.14h0A28.18,28.18,0,0,1,803.81,235v-621.5A28.18,28.18,0,0,1,832-414.71h0a28.18,28.18,0,0,1,28.18,28.18V235A28.18,28.18,0,0,1,832,263.14Z"/><rect class="cls-8" x="1612.47" y="284.04" width="37.41" height="450.01" rx="11.43"/><path class="cls-9" d="M961.49,490.4h0a18.71,18.71,0,0,1-18.7-18.71V59.1a18.7,18.7,0,0,1,18.69-18.71h0A18.72,18.72,0,0,1,980.2,59.1V471.7A18.71,18.71,0,0,1,961.49,490.4Z"/><path class="cls-10" d="M1315.22,340h0a18.7,18.7,0,0,1-18.7-18.7V44.47a18.72,18.72,0,0,1,18.7-18.71h0a18.72,18.72,0,0,1,18.71,18.71V321.29A18.71,18.71,0,0,1,1315.24,340Z"/><path class="cls-11" d="M920.22,938h0a18.7,18.7,0,0,1-18.7-18.7h0V642.47a18.72,18.72,0,0,1,18.7-18.71h0a18.71,18.71,0,0,1,18.71,18.71h0V919.29A18.71,18.71,0,0,1,920.24,938Z"/><path class="cls-12" d="M1083.71,813.72h0a28.78,28.78,0,0,1-28.8-28.77V358.74A28.78,28.78,0,0,1,1083.69,330h0a28.78,28.78,0,0,1,28.79,28.78h0V784.92a28.78,28.78,0,0,1-28.78,28.8Z"/><path class="cls-13" d="M1761.71,910.72h0a28.78,28.78,0,0,1-28.8-28.77V455.74A28.78,28.78,0,0,1,1761.69,427h0a28.78,28.78,0,0,1,28.79,28.78h0V881.92a28.78,28.78,0,0,1-28.78,28.8Z"/><rect class="cls-14" x="1138.31" y="298.26" width="37.41" height="212.39" rx="11.43"/><path class="cls-15" d="M1411.82,576.35h0a28.22,28.22,0,0,1-28.23-28.22V284a28.24,28.24,0,0,1,28.24-28.24h0A28.25,28.25,0,0,1,1440.06,284V548.13a28.22,28.22,0,0,1-28.23,28.22Z"/><path class="cls-16" d="M1314.82,920.35h0a28.22,28.22,0,0,1-28.23-28.22V628a28.24,28.24,0,0,1,28.24-28.24h0A28.25,28.25,0,0,1,1343.06,628V892.13a28.22,28.22,0,0,1-28.23,28.22Z"/><path class="cls-17" d="M55.43,426.73h0a24.49,24.49,0,0,1-24.5-24.44V-138a24.51,24.51,0,0,1,24.5-24.49h0A24.51,24.51,0,0,1,79.92-138V402.29A24.49,24.49,0,0,1,55.43,426.73Z"/><path class="cls-18" d="M132.22,545h0a18.7,18.7,0,0,1-18.7-18.7h0V249.47a18.72,18.72,0,0,1,18.7-18.71h0a18.71,18.71,0,0,1,18.71,18.71V526.29A18.71,18.71,0,0,1,132.24,545Z"/><path class="cls-19" d="M228.82,781.35h0a28.22,28.22,0,0,1-28.23-28.22V489a28.24,28.24,0,0,1,28.24-28.24h0A28.25,28.25,0,0,1,257.06,489V753.13a28.22,28.22,0,0,1-28.23,28.22Z"/><rect class="cls-20" x="1022.28" y="-94.23" width="37.41" height="212.39" rx="11.43"/><rect class="cls-21" x="410.28" y="502.77" width="37.41" height="212.39" rx="11.43"/><path class="cls-22" d="M820.43,625.89h0a18.71,18.71,0,0,1-18.7-18.71v-175a18.72,18.72,0,0,1,18.7-18.71h0a18.71,18.71,0,0,1,18.71,18.71h0v175a18.71,18.71,0,0,1-18.71,18.71Z"/><path class="cls-23" d="M1530.43,919.89h0a18.71,18.71,0,0,1-18.7-18.71v-175a18.72,18.72,0,0,1,18.7-18.71h0a18.71,18.71,0,0,1,18.71,18.71v175A18.71,18.71,0,0,1,1530.43,919.89Z"/><path class="cls-24" d="M744.1,414.45h0a18.71,18.71,0,0,1-18.7-18.71v-175A18.7,18.7,0,0,1,744.1,202h0a18.71,18.71,0,0,1,18.71,18.7h0v175a18.71,18.71,0,0,1-18.71,18.71Z"/><path class="cls-25" d="M329.1,993.46h0a18.72,18.72,0,0,1-18.7-18.71v-175A18.71,18.71,0,0,1,329.1,781h0a18.71,18.71,0,0,1,18.71,18.71h0v175A18.71,18.71,0,0,1,329.1,993.46Z"/><path class="cls-26" d="M322,145.14h0A28.18,28.18,0,0,1,293.81,117v-621.5A28.18,28.18,0,0,1,322-532.71h0a28.18,28.18,0,0,1,28.18,28.18V117A28.18,28.18,0,0,1,322,145.14Z"/><path class="cls-27" d="M451.49,372.4h0a18.71,18.71,0,0,1-18.7-18.71V-58.9a18.7,18.7,0,0,1,18.69-18.71h0A18.71,18.71,0,0,1,470.2-58.9V353.69A18.71,18.71,0,0,1,451.49,372.4Z"/><path class="cls-28" d="M556.71,695.72h0a28.78,28.78,0,0,1-28.8-28.78V240.74A28.78,28.78,0,0,1,556.69,212h0a28.78,28.78,0,0,1,28.79,28.79h0V666.92a28.78,28.78,0,0,1-28.78,28.8Z"/><path class="cls-29" d="M55.71,1001.73h0A28.8,28.8,0,0,1,26.91,973V546.74A28.78,28.78,0,0,1,55.69,518h0A28.78,28.78,0,0,1,84.5,546.73h0V972.92a28.79,28.79,0,0,1-28.78,28.81Z"/><path class="cls-30" d="M725.71,957.72h0a28.78,28.78,0,0,1-28.8-28.78V502.74A28.78,28.78,0,0,1,725.69,474h0a28.78,28.78,0,0,1,28.79,28.79h0V928.92a28.78,28.78,0,0,1-28.78,28.8Z"/><rect class="cls-31" x="628.31" y="180.26" width="37.41" height="212.39" rx="11.43"/><path class="cls-32" d="M310.43,507.89h0a18.71,18.71,0,0,1-18.7-18.71v-175a18.72,18.72,0,0,1,18.7-18.71h0a18.71,18.71,0,0,1,18.71,18.71v175a18.71,18.71,0,0,1-18.71,18.71Z"/><path class="cls-33" d="M488.43,972.89h0a18.71,18.71,0,0,1-18.7-18.71v-175a18.72,18.72,0,0,1,18.7-18.71h0a18.71,18.71,0,0,1,18.71,18.71h0v175a18.71,18.71,0,0,1-18.71,18.71Z"/><path class="cls-34" d="M234.1,296.45h0a18.71,18.71,0,0,1-18.7-18.71v-175A18.7,18.7,0,0,1,234.1,84h0a18.71,18.71,0,0,1,18.71,18.7v175A18.71,18.71,0,0,1,234.1,296.45Z"/><rect class="cls-35" x="1832.94" y="134.48" width="37.41" height="450.01" rx="11.43"/><path class="cls-36" d="M1761.92,706.36h0a18.71,18.71,0,0,1-18.71-18.7v-175a18.72,18.72,0,0,1,18.71-18.7h0a18.72,18.72,0,0,1,18.71,18.7v175A18.71,18.71,0,0,1,1761.92,706.36Z"/><rect class="cls-37" x="1558.02" y="-93.56" width="37.41" height="212.39" rx="11.43"/><circle class="cls-38" cx="1481.01" cy="184.51" r="13.41"/><rect class="cls-38" x="1147.48" y="425.02" width="28.55" height="7.14" transform="translate(37.22 947.02) rotate(-45)"/><rect class="cls-38" x="1158.23" y="414.32" width="7.14" height="28.55" transform="translate(37.22 947.05) rotate(-45)"/><rect class="cls-38" x="1727.7" y="596.44" width="28.55" height="7.14" transform="translate(85.94 1407.5) rotate(-45)"/><rect class="cls-38" x="1738.4" y="585.74" width="7.14" height="28.55" transform="translate(85.94 1407.5) rotate(-45)"/><circle class="cls-38" cx="978" cy="537.52" r="13.41" transform="translate(106.43 1234.5) rotate(-67.44)"/><rect class="cls-38" x="1608.33" y="431.91" width="27.64" height="27.64"/><polygon class="cls-38" points="1100.11 145.24 1107.58 158.18 1115.05 171.1 1100.11 171.1 1085.17 171.1 1092.64 158.18 1100.11 145.24"/><polygon class="cls-38" points="1315.85 654.76 1323.32 667.71 1330.79 680.64 1315.85 680.64 1300.92 680.64 1308.39 667.71 1315.85 654.76"/><circle class="cls-38" cx="519.01" cy="452.51" r="13.41"/><rect class="cls-38" x="185.5" y="692.99" width="28.55" height="7.14" transform="translate(-434.03 345.28) rotate(-45)"/><rect class="cls-38" x="196.22" y="682.31" width="7.14" height="28.55" transform="translate(-434.04 345.3) rotate(-45)"/><rect class="cls-38" x="765.7" y="864.44" width="28.55" height="7.14" transform="translate(-385.33 805.76) rotate(-45)"/><rect class="cls-38" x="776.4" y="853.74" width="7.14" height="28.55" transform="translate(-385.33 805.76) rotate(-45)"/><circle class="cls-38" cx="16.01" cy="805.52" r="13.41" transform="translate(-768.63 622.57) rotate(-75.74)"/><rect class="cls-38" x="646.33" y="699.91" width="27.64" height="27.64"/><polygon class="cls-38" points="138.11 413.24 145.58 426.18 153.05 439.11 138.11 439.11 123.17 439.11 130.64 426.18 138.11 413.24"/><polygon class="cls-38" points="353.85 922.76 361.32 935.71 368.79 948.64 353.85 948.64 338.92 948.64 346.39 935.71 353.85 922.76"/><circle class="cls-38" cx="675.01" cy="55.51" r="13.41"/><rect class="cls-38" x="341.5" y="296" width="28.55" height="7.14" transform="translate(-107.62 339.32) rotate(-45)"/><rect class="cls-38" x="352.22" y="285.31" width="7.14" height="28.55" transform="translate(-107.63 339.33) rotate(-45)"/><rect class="cls-38" x="802.33" y="302.91" width="27.64" height="27.64"/><polygon class="cls-38" points="294.11 16.23 301.58 29.18 309.05 42.1 294.11 42.1 279.17 42.1 286.64 29.18 294.11 16.23"/><polygon class="cls-38" points="1664.85 874.42 1672.32 887.36 1679.79 900.29 1664.85 900.29 1649.92 900.29 1657.39 887.36 1664.85 874.42"/><g class="cls-39"><rect class="cls-40" x="96.21" y="570.97" width="327.6" height="327.6" rx="96.94"/></g><g class="cls-39"><rect class="cls-41" x="1248.21" y="534.97" width="327.6" height="327.6" rx="96.94"/></g><g class="cls-39"><rect class="cls-42" x="295.86" y="40.29" width="412.95" height="412.95" rx="122.19"/></g><g class="cls-39"><rect class="cls-43" x="1501.51" y="24.28" width="412.95" height="412.95" rx="122.19"/></g><g class="cls-39"><polygon class="cls-44" points="1091.66 751 688.14 751 889.9 400.81 1091.66 751"/></g><polygon class="cls-38" points="1083.45 897.42 1090.92 910.36 1098.39 923.29 1083.45 923.29 1068.51 923.29 1075.98 910.36 1083.45 897.42"/></svg>