<svg id="Layer_1" data-name="Layer 1" xmlns="http://www.w3.org/2000/svg" viewBox="0 0 125.97 123"><defs><style>.cls-1{fill:none;stroke:#000;fill-rule:evenodd;}.cls-1,.cls-2{stroke-miterlimit:10;}.cls-2{fill:#231f20;stroke:#231f20;stroke-width:4px;}</style></defs><path id="形状" class="cls-1" d="M61.13,77.71l4.78,2.76a5.94,5.94,0,0,1-3,.8,6.26,6.26,0,0,1-1.57-.21L61.13,81ZM59.94,75v5.51a6,6,0,0,1-2.8-3.68l0-.19Zm9,.34a6,6,0,0,1-1.8,4.27L67,79.7l-2.84-1.64Zm-6-2.07,1.79,1v2.06l-1.79,1-1.79-1V74.27Zm3-3.1A6,6,0,0,1,68.75,74l-2.84,1.64Zm-7,.77,2.84,1.64L57,75.3v-.2A6,6,0,0,1,58.75,71Zm4-1.57a6.28,6.28,0,0,1,1.58.21l.21.07v3.28l-4.77-2.76A5.93,5.93,0,0,1,62.92,69.33Z" transform="translate(-6.43 -7.76)"/><path class="cls-2" d="M92.37,47.37c-.22-.74-.44-1.5-.65-2.26.26,1,.54,2,.84,2.89C92.5,47.79,92.43,47.58,92.37,47.37Z" transform="translate(-6.43 -7.76)"/><path class="cls-2" d="M111.74,39.53c0,.91,0,1.74-.07,2.48s-.12,1.42-.2,2.05-.15,1.21-.23,1.77-.19,1-.27,1.54a51.69,51.69,0,0,1-1.64,8.14A22.1,22.1,0,0,1,107,61a9,9,0,0,1-3.06,3.1,7.2,7.2,0,0,1-3.69,1,6.94,6.94,0,0,1-2.87-.65,9.64,9.64,0,0,1-2.85-2,16.56,16.56,0,0,1-2.6-3.55c-.07-.12-.14-.25-.2-.38a24.06,24.06,0,0,1-.86,4.73,16.87,16.87,0,0,1-1.67,3.9,11.63,11.63,0,0,1-1.36,1.83c-.56.64-1.16,1.31-1.79,2s-1.23,1.36-1.83,2a1.75,1.75,0,0,0-.37.87c0,.35.24.53.71.53a5.57,5.57,0,0,0,1.16-.22c.57-.15,1.27-.34,2.08-.58s1.69-.49,2.69-.74,2-.51,3.09-.75,2.13-.43,3.22-.58a24.4,24.4,0,0,1,3.09-.22,6.13,6.13,0,0,1,1.45.17,3.46,3.46,0,0,1,1.19.49,2.31,2.31,0,0,1,1.1,2,10.49,10.49,0,0,1-.16,1.78c-.11.63-.24,1.26-.39,1.88s-.29,1.22-.43,1.77-.25,1-.33,1.4a25.15,25.15,0,0,1-1.23,4.42,26.83,26.83,0,0,1-1.85,3.94,28.35,28.35,0,0,1-2.4,3.52A33.82,33.82,0,0,1,94,95.82c-1.47,1.42-3,2.76-4.52,4s-3.09,2.39-4.63,3.46-3.09,2.07-4.62,3-3,1.78-4.47,2.57l-.9.47a.05.05,0,0,1,0,0c-.6.36-1.29.76-2.08,1.19L70.23,112c-.86.51-1.74,1-2.64,1.61s-1.75,1.13-2.54,1.7q-4.29,3.09-7.76,5.2a54.4,54.4,0,0,1-6.41,3.4,30.42,30.42,0,0,1-5.5,1.88,22.88,22.88,0,0,1-5,.57,8.39,8.39,0,0,1-2.26-.29h-.07a6.45,6.45,0,0,1-.67-.16,7.52,7.52,0,0,1-1.65-.71,13.65,13.65,0,0,1-1.85-1.29,15.55,15.55,0,0,1-2-2A26.9,26.9,0,0,1,30,119.45a33.09,33.09,0,0,1-1.88-3,34.56,34.56,0,0,1-1.78-3.75,41.77,41.77,0,0,1-1.56-4.56h-.24c-.71.59-1.54,1.21-2.47,1.85s-1.89,1.29-2.88,2-2,1.33-2.91,2-1.8,1.29-2.55,1.9a11.88,11.88,0,0,0-1.82,1.77,2.55,2.55,0,0,0-.68,1.53,1.36,1.36,0,0,0,.36.93,2.83,2.83,0,0,0,.9.67,5.14,5.14,0,0,0,1.22.4,6.74,6.74,0,0,0,1.32.14,10.88,10.88,0,0,0,2.05-.23,21.37,21.37,0,0,0,2.65-.71c1-.33,2.1-.76,3.32-1.29s2.6-1.2,4.1-2l.18.23A15.2,15.2,0,0,0,26,119.42c-.43.86-.86,1.71-1.27,2.54s-.84,1.63-1.25,2.33a4.19,4.19,0,0,1-1.25,1.44,19,19,0,0,1-4.51,2.32,13.32,13.32,0,0,1-4.16.71,6.4,6.4,0,0,1-2.11-.33,5.11,5.11,0,0,1-1.62-.87,3.91,3.91,0,0,1-1-1.28,3.5,3.5,0,0,1-.35-1.5,12,12,0,0,1,.12-1.6c.08-.6.17-1.2.28-1.82s.22-1.2.34-1.78.19-1.08.27-1.51a18.13,18.13,0,0,1,1.86-5.81,14,14,0,0,1,3.43-4.17c.55-.46,1.22-1,2-1.52l2.42-1.69c.83-.56,1.64-1.11,2.41-1.65s1.42-1,2-1.5a23.2,23.2,0,0,1,.4-2.29c.19-.85.4-1.66.64-2.42a19.28,19.28,0,0,1,.7-1.93c.22-.52.42-.79.58-.79s.28.07.31.2a2,2,0,0,1,0,.46q.09,1.33.27,2.55c.12.83.23,1.6.33,2.32a46.52,46.52,0,0,0,1.36,5.64,27.65,27.65,0,0,0,2.14,5A22.94,22.94,0,0,0,33.5,115c.22.24.44.48.68.72a4.27,4.27,0,0,0,.38.36A10.83,10.83,0,0,0,37,117.78a8.53,8.53,0,0,0,3.9.88,18.54,18.54,0,0,0,4.78-.74,42.21,42.21,0,0,0,5.64-2,60.9,60.9,0,0,0,6-3,63,63,0,0,0,5.75-3.74,54.17,54.17,0,0,0,5-4.17,26.28,26.28,0,0,0,3.74-4.34,12.65,12.65,0,0,0,.92-1.54,2.76,2.76,0,0,0,.33-1,3,3,0,0,0-.3-1.19,3.72,3.72,0,0,0-1-1.29,5.5,5.5,0,0,0-1.7-1,6.71,6.71,0,0,0-2.5-.42,9.77,9.77,0,0,0-5.42,1.61,17.89,17.89,0,0,0-4.58,4.44,37.35,37.35,0,0,0-3.84,6.71,77.74,77.74,0,0,0-3.21,8.45h-.18l-1.13-4a6.45,6.45,0,0,1,.21-1.36l.48-2.05c.17-.75.33-1.58.47-2.47a17.54,17.54,0,0,0,.21-2.73,39.7,39.7,0,0,0-.24-4.08c-.16-1.54-.38-3.1-.68-4.7s-.65-3.16-1-4.71a38.81,38.81,0,0,0-1.29-4.11,13.48,13.48,0,0,0-1.5-2.91c-.54-.74-1.07-1.12-1.61-1.12a1.35,1.35,0,0,0-.83.27,2.06,2.06,0,0,0-.62.85,8.12,8.12,0,0,0-.49,1.51c-.15.63-.3,1.37-.43,2.25a1.51,1.51,0,0,1-.23.66.4.4,0,0,1-.31.17c-.36,0-.53-.38-.53-1.13a16.6,16.6,0,0,1,.13-1.89c.09-.76.21-1.57.37-2.43s.36-1.73.6-2.6a19.44,19.44,0,0,1,.8-2.41,13.29,13.29,0,0,1,1.38-2.69,2,2,0,0,1,1.59-1,2.85,2.85,0,0,1,2.11,1,13.55,13.55,0,0,1,1.81,2.6,23.4,23.4,0,0,1,1.86,4.27,39.84,39.84,0,0,1,1.23,4.87,48.29,48.29,0,0,1,.68,5.22c.14,1.8.21,3.58.21,5.37,0,.71,0,1.37,0,2s0,1.19-.1,1.77l.24.12a38.92,38.92,0,0,1,3.18-5.42,23.56,23.56,0,0,1,3.56-4.06,14.87,14.87,0,0,1,3.88-2.54,10.22,10.22,0,0,1,4.11-.87,8.18,8.18,0,0,1,2.82.46,6.54,6.54,0,0,1,2.22,1.3,5.81,5.81,0,0,1,1.45,2.1,7.11,7.11,0,0,1,.52,2.79,13.26,13.26,0,0,1-.18,1.9c-.12.79-.29,1.68-.53,2.67a37.71,37.71,0,0,1-.73,3.89c.8-.47,1.64-1,2.53-1.52,1.73-1.06,3.59-2.27,5.57-3.61s4.05-2.87,6.22-4.58,4.37-3.61,6.61-5.73a40,40,0,0,0,3.84-4.17,5.35,5.35,0,0,0,1.39-2.78c0-.6-.78-.89-2.32-.89a19.49,19.49,0,0,0-3,.25c-1.08.17-2.18.38-3.31.62s-2.23.52-3.3.82l-3,.82-2.41.62a6.86,6.86,0,0,1-1.47.25,1.49,1.49,0,0,1-.86-.2q-.27-.21-.27-.93,0-.22.12-1.26c.08-.68.22-1.5.42-2.45s.45-2,.77-3.09a19.58,19.58,0,0,1,.82-2.34l0-.07c.1-.28.21-.56.34-.85a17,17,0,0,1,1.69-3c.76-1.09,1.51-2.27,2.28-3.52a28.91,28.91,0,0,0,2-4,11.16,11.16,0,0,0,.86-4.28,14.68,14.68,0,0,0-.4-2.88q-.41-1.87-1-4.23c-.4-1.58-.83-3.25-1.28-5S86,40.5,85.57,38.77s-.73-3.39-1-5a24.58,24.58,0,0,1-.4-4.08,12.51,12.51,0,0,1,.66-3.63A30.41,30.41,0,0,1,87,21.17l.29.18a2.83,2.83,0,0,0-.06.62v.69a29.51,29.51,0,0,0,.36,4.24c.24,1.63.57,3.4,1,5.34s.89,4,1.43,6.16,1.09,4.37,1.67,6.65c0,0,0,0,0,.06.26,1,.54,2,.84,2.89.13.41.26.8.4,1.18a20.13,20.13,0,0,0,1.12,2.53,13.43,13.43,0,0,0,2,2.89,7.29,7.29,0,0,0,2.26,1.64,5.89,5.89,0,0,0,2.36.52,5,5,0,0,0,2.9-1,10.07,10.07,0,0,0,2.49-2.65,15,15,0,0,0,1.74-3.67,13.38,13.38,0,0,0,.65-4.08,18.32,18.32,0,0,0-.32-3.12c-.22-1.19-.5-2.45-.85-3.79s-.75-2.71-1.22-4.14-.94-2.83-1.42-4.22-1-2.72-1.47-4l-1.37-3.49h-.18a5,5,0,0,0-1,2.3,15.78,15.78,0,0,0-.27,2.92,3.85,3.85,0,0,0,.06.69,3,3,0,0,1,.06.5,1.13,1.13,0,0,1-.06.36.24.24,0,0,1-.24.18.42.42,0,0,1-.37-.27c-.09-.18-.18-.39-.28-.62a5.88,5.88,0,0,1-.22-.75c-.09-.35-.17-.75-.25-1.2s-.15-.91-.21-1.38A10.56,10.56,0,0,1,98.85,24a10.36,10.36,0,0,1,.52-3.24,24.67,24.67,0,0,1,1.26-3.11c.5-1,1-2,1.58-3s1-1.86,1.39-2.73h.24c.51,1.39,1.08,2.84,1.69,4.37s1.19,3.08,1.77,4.68,1.14,3.2,1.68,4.82,1,3.23,1.41,4.82.73,3.12,1,4.63A25.91,25.91,0,0,1,111.74,39.53Z" transform="translate(-6.43 -7.76)"/><path class="cls-2" d="M22.69,85.85A3.86,3.86,0,0,1,22,84.74a3.77,3.77,0,0,1,.29-.94c.18-.48.41-1,.68-1.62s.56-1.17.88-1.73a6.42,6.42,0,0,1,.89-1.3,13.18,13.18,0,0,0,3,2.71,18.22,18.22,0,0,0,3.64,1.87q-.63,1.63-1.11,2.73c-.33.73-.61,1.32-.85,1.77a7.79,7.79,0,0,1-.58,1c-.15.2-.25.3-.31.3a2.26,2.26,0,0,1-.74-.19,9,9,0,0,1-1.16-.55c-.44-.24-.9-.51-1.38-.82a14.19,14.19,0,0,1-1.38-1A8.15,8.15,0,0,1,22.69,85.85Z" transform="translate(-6.43 -7.76)"/><path class="cls-2" d="M12.8,87.66a2.58,2.58,0,0,1-.57-.84,4.49,4.49,0,0,1,.34-1c.23-.58.49-1.2.79-1.87s.6-1.3.92-1.88A3.25,3.25,0,0,1,15,81a16.71,16.71,0,0,0,1.25,1.2c.52.44,1.08.88,1.69,1.31s1.24.82,1.88,1.2a10.62,10.62,0,0,0,1.78.86,12,12,0,0,1-.52,1.83c-.25.68-.51,1.33-.79,1.94s-.53,1.13-.77,1.55-.4.62-.48.62a2.69,2.69,0,0,1-1-.25,13.65,13.65,0,0,1-1.34-.66,17.14,17.14,0,0,1-1.47-.9c-.49-.34-.95-.68-1.38-1A8.24,8.24,0,0,1,12.8,87.66Z" transform="translate(-6.43 -7.76)"/><path class="cls-2" d="M130.4,40.78c0,.91,0,1.75-.09,2.53s-.15,1.54-.27,2.28a21.38,21.38,0,0,1-.46,2.14c-.19.69-.41,1.4-.67,2.13a15.63,15.63,0,0,1-3.15,5.49,15,15,0,0,1-5.52,3.9,13.52,13.52,0,0,0-1.64.71,2.34,2.34,0,0,1-.92.36,1.26,1.26,0,0,1-.3,0c-.07,0-.11-.09-.11-.21a.54.54,0,0,1,.2-.41l.45-.36c.93-.79,1.9-1.64,2.91-2.54a20.3,20.3,0,0,0,2.76-3A16.34,16.34,0,0,0,125.66,50a12.49,12.49,0,0,0,.81-4.63,28.4,28.4,0,0,0-.38-4.38,51.66,51.66,0,0,0-1.23-5.56q-.85-3.07-2.16-6.81t-3.12-8.2h-.23a11.19,11.19,0,0,0-1.12,2.86,12.47,12.47,0,0,0-.31,2.78,7.72,7.72,0,0,0,.18,1.75,7.29,7.29,0,0,1,.18,1,2.19,2.19,0,0,1,0,.36.19.19,0,0,1-.21.18.47.47,0,0,1-.4-.27,3.11,3.11,0,0,1-.31-.68,20.45,20.45,0,0,1-.79-2.84,15.66,15.66,0,0,1-.28-3.1,9.78,9.78,0,0,1,.47-3,23.51,23.51,0,0,1,1.23-3q.77-1.55,1.71-3.18c.62-1.09,1.22-2.25,1.81-3.48h.24c.85,2.48,1.78,5,2.79,7.67s1.95,5.31,2.83,8,1.59,5.3,2.18,7.89A34.31,34.31,0,0,1,130.4,40.78Z" transform="translate(-6.43 -7.76)"/></svg>