<svg id="Layer_1" data-name="Layer 1" xmlns="http://www.w3.org/2000/svg" viewBox="0 0 595.28 151.71"><defs><style>.cls-1,.cls-2{fill:#231f20;}.cls-1{fill-rule:evenodd;}.cls-2{stroke:#231f20;stroke-miterlimit:10;stroke-width:4px;}</style></defs><path class="cls-1" d="M12.69,79.34l-.09,44a12.89,12.89,0,0,0,12.88,12.91h77.26a12.89,12.89,0,0,0,12.88-12.88v-44a19.33,19.33,0,0,0,12.89-18.22c0-5-7.16-25.86-10.95-36.38A12.88,12.88,0,0,0,105.38,16H23.18A12.87,12.87,0,0,0,10.9,25L.8,57A17.13,17.13,0,0,0,2.37,70.86h0A19.31,19.31,0,0,0,12.69,79.34Zm94.35,1a19.31,19.31,0,0,1-12.88-7.07,19.29,19.29,0,0,1-30,0,19.29,19.29,0,0,1-30,0,19.34,19.34,0,0,1-12.78,7.06l-.09,43.05a4.28,4.28,0,0,0,4.29,4.3H46.94V110.46A12.87,12.87,0,0,1,59.82,97.58H68.4a12.87,12.87,0,0,1,12.88,12.88v17.17h21.46a4.3,4.3,0,0,0,4.3-4.29ZM72.7,127.63H55.52V110.46a4.3,4.3,0,0,1,4.3-4.29H68.4a4.3,4.3,0,0,1,4.3,4.29Zm-53.62-100a4.32,4.32,0,0,1,4.1-3h82.2a4.28,4.28,0,0,1,4.06,2.92l0,0c3.51,9.74,10.46,29,10.46,33.54a10.73,10.73,0,0,1-21.46,0c0-6.5-8.59-6.5-8.59,0a10.74,10.74,0,0,1-21.47,0c0-6.43-8.58-6.43-8.58,0a10.74,10.74,0,0,1-21.47,0c0-6.43-8.59-6.43-8.59,0a10.73,10.73,0,0,1-20,5.42A8.61,8.61,0,0,1,9,59.57Z"/><path class="cls-2" d="M163.52,87.42a2,2,0,0,1-1.9-.72,3.59,3.59,0,0,1-.33-2.45,3.94,3.94,0,0,1,1-2.13,2.84,2.84,0,0,1,2-.68,48,48,0,0,0,12.74-2.27,32.06,32.06,0,0,0,10-5.25,24.15,24.15,0,0,0,6.48-7.67,19.86,19.86,0,0,0,2.27-9.36,9.55,9.55,0,0,0-2.41-7,9,9,0,0,0-6.81-2.48,14,14,0,0,0-5.47,1.18,25.74,25.74,0,0,0-5.65,3.42,35.06,35.06,0,0,0-5.44,5.4,55.31,55.31,0,0,0-4.89,7.13,62.51,62.51,0,0,0-4.11,8.5l-13,40.46a2.4,2.4,0,0,1-1.15,1.51,5,5,0,0,1-2.52.51,4.45,4.45,0,0,1-2.38-.51,1.28,1.28,0,0,1-.43-1.65l18-55.51A37.7,37.7,0,0,1,155.82,61c-1.3,1-2.66,1.87-4.1,2.74s-3,1.68-4.54,2.45a2.59,2.59,0,0,1-2.48.25,3.7,3.7,0,0,1-1.55-2,3.12,3.12,0,0,1-.11-2.31,3.3,3.3,0,0,1,1.84-1.58A52.07,52.07,0,0,0,153.23,56a31.8,31.8,0,0,0,6.15-5.54,34.31,34.31,0,0,0,4.58-7,3.74,3.74,0,0,1,1.4-1.54,5.37,5.37,0,0,1,2.41-.4,4.33,4.33,0,0,1,2.34.5,1.32,1.32,0,0,1,.4,1.66l-2.81,8.71a35.73,35.73,0,0,1,6.59-6.05,28.8,28.8,0,0,1,7-3.6,21.71,21.71,0,0,1,7-1.22,14.1,14.1,0,0,1,7.38,1.87,12.89,12.89,0,0,1,4.86,5.15,16.25,16.25,0,0,1,1.73,7.67,26.39,26.39,0,0,1-2.84,12.13,30.11,30.11,0,0,1-8,9.76,40.44,40.44,0,0,1-12.28,6.62A53.07,53.07,0,0,1,163.52,87.42Z"/><path class="cls-2" d="M181.52,115.78c-.91,0-1.5-.27-1.76-.82a2.77,2.77,0,0,1-.14-1.88,3.66,3.66,0,0,1,1.15-1.87,3,3,0,0,1,2.12-.83,12,12,0,0,0,5.19-1.4,35.62,35.62,0,0,0,6.12-3.92,71.67,71.67,0,0,0,6.62-5.91q3.39-3.37,6.77-7.38t6.48-8.31q3.09-4.32,5.76-8.72a87.62,87.62,0,0,0,4.61-8.6,59.73,59.73,0,0,0,3.06-8,24.74,24.74,0,0,0,1.11-6.84,1.75,1.75,0,0,1,.94-1.62,4.73,4.73,0,0,1,4.39,0,1.77,1.77,0,0,1,.94,1.62,25.55,25.55,0,0,1-1.23,7.31,56.46,56.46,0,0,1-3.49,8.64,105.16,105.16,0,0,1-5.29,9.36q-3,4.78-6.59,9.54t-7.45,9.14q-3.89,4.39-7.85,8.1a81.48,81.48,0,0,1-7.81,6.52,42,42,0,0,1-7.31,4.36A15.67,15.67,0,0,1,181.52,115.78Zm28.52,0q-5,0-7.74-2.23a9,9,0,0,1-3-6.59A30.38,30.38,0,0,1,201,96.13l13.9-42.77q2.08-6.4,5-9.29A9.83,9.83,0,0,1,227,41.19a7.06,7.06,0,0,1,4.21,1.26,7.93,7.93,0,0,1,2.7,3.49,13.84,13.84,0,0,1,.94,5.33,2.3,2.3,0,0,1-.94,2,4,4,0,0,1-4.39,0,2.28,2.28,0,0,1-.94-2,7.31,7.31,0,0,0-.29-2.19,2.92,2.92,0,0,0-.82-1.37,2.31,2.31,0,0,0-1.55-.47,2.65,2.65,0,0,0-1.62.65A7.44,7.44,0,0,0,222.64,50a21,21,0,0,0-1.73,4.21L206.65,98.29a23.24,23.24,0,0,0-1.33,7,4.67,4.67,0,0,0,1.62,3.89,7.66,7.66,0,0,0,4.75,1.22,1.6,1.6,0,0,1,1.48.83,2.64,2.64,0,0,1,.25,1.87,3.65,3.65,0,0,1-1,1.88A3.19,3.19,0,0,1,210,115.78Z"/><path class="cls-2" d="M210.11,115.78a1.57,1.57,0,0,1-1.48-.82,2.77,2.77,0,0,1-.29-1.88,3.35,3.35,0,0,1,1-1.87,3.27,3.27,0,0,1,2.37-.83,9.75,9.75,0,0,0,3.78-.79,15.18,15.18,0,0,0,3.78-2.34,20.56,20.56,0,0,0,3.46-3.71,28.1,28.1,0,0,0,2.81-4.82c.24-.72.66-1.07,1.26-1a2.28,2.28,0,0,1,1.58.72,1.6,1.6,0,0,1,.4,1.69,27.88,27.88,0,0,1-3.32,6.59,24,24,0,0,1-4.46,4.93,18.88,18.88,0,0,1-5.26,3.09A15.68,15.68,0,0,1,210.11,115.78Z"/><path class="cls-2" d="M234.3,115.78a9.79,9.79,0,0,1-5.33-1.4,9,9,0,0,1-3.42-4.07,15.27,15.27,0,0,1-1.19-6.26,28.86,28.86,0,0,1,.9-6.84A32.28,32.28,0,0,1,228,90a28.26,28.26,0,0,1,4.61-6.45,21.06,21.06,0,0,1,6.51-4.64,20.11,20.11,0,0,1,8.5-1.73,16.14,16.14,0,0,1,6,1.19,23.21,23.21,0,0,1,5.33,3l-.94,5a21.88,21.88,0,0,0-5.51-2.74,16.67,16.67,0,0,0-4.79-.72,14.43,14.43,0,0,0-6.44,1.37,14.76,14.76,0,0,0-4.75,3.67,21.66,21.66,0,0,0-3.24,5,27,27,0,0,0-1.87,5.44,22.14,22.14,0,0,0-.62,4.86,9.26,9.26,0,0,0,.65,3.7,5,5,0,0,0,1.87,2.27,5.47,5.47,0,0,0,3,.79,9.25,9.25,0,0,0,5.18-1.8,24.35,24.35,0,0,0,5.37-5.22,50.75,50.75,0,0,0,5.14-8.1l1.59,3.17A42.94,42.94,0,0,1,247,108.8a22.9,22.9,0,0,1-6.8,5.44A14,14,0,0,1,234.3,115.78Zm21.53,0a9.42,9.42,0,0,1-4.47-.93,5.84,5.84,0,0,1-2.55-2.63,8.36,8.36,0,0,1-.79-3.89,16.45,16.45,0,0,1,.82-4.71l7.85-23.84a3.59,3.59,0,0,1,1.19-1.87,3.89,3.89,0,0,1,2.05-.43c1.49,0,2.44.23,2.85.68a2.08,2.08,0,0,1,.1,2.13l-7.84,24c-.77,2.31-.94,3.9-.51,4.79s1.42,1.33,3,1.33a1.44,1.44,0,0,1,1.41.83,3.23,3.23,0,0,1,.25,1.87,3.27,3.27,0,0,1-1,1.88A3.18,3.18,0,0,1,255.83,115.78Z"/><path class="cls-2" d="M256,115.78a1,1,0,0,1-1-.82,3.69,3.69,0,0,1,.07-1.88,5.09,5.09,0,0,1,1-1.87,2,2,0,0,1,1.54-.83,6.21,6.21,0,0,0,2.56-.64,11.18,11.18,0,0,0,2.95-2.16,25.79,25.79,0,0,0,3.28-4.11,45.76,45.76,0,0,0,3.53-6.62,86.21,86.21,0,0,1,5.18-10.08,31.94,31.94,0,0,1,4.46-5.87,12,12,0,0,1,4-2.77,10.63,10.63,0,0,1,3.78-.72,1,1,0,0,1,1,.83,4.79,4.79,0,0,1,.07,1.87,5.35,5.35,0,0,1-.61,1.87,1.37,1.37,0,0,1-1.19.83,4.36,4.36,0,0,0-2.34.75A11.86,11.86,0,0,0,281.67,86a32.64,32.64,0,0,0-2.95,4.42q-1.58,2.77-3.53,6.81a80.93,80.93,0,0,1-5.22,9.57,27.19,27.19,0,0,1-4.68,5.66,12.5,12.5,0,0,1-4.53,2.66A16.36,16.36,0,0,1,256,115.78Z"/><path class="cls-2" d="M314,115.78a9.21,9.21,0,0,1-4.39-.93,5.91,5.91,0,0,1-2.56-2.63,8.49,8.49,0,0,1-.79-3.89,16.83,16.83,0,0,1,.83-4.71l4.54-13.83a8.76,8.76,0,0,0,.54-3.71,3.29,3.29,0,0,0-1.3-2.37,5.47,5.47,0,0,0-3.28-.83A10.49,10.49,0,0,0,303.13,84a19,19,0,0,0-4.57,3.1,31.56,31.56,0,0,0-4.32,4.78A43.37,43.37,0,0,0,290.46,98l-5,15.77a2.39,2.39,0,0,1-1.05,1.4,4.73,4.73,0,0,1-2.41.47,4.6,4.6,0,0,1-2.12-.5c-.65-.34-.83-1-.54-1.88l8.78-27.36a3.41,3.41,0,0,0,.18-2.3c-.21-.53-.75-.79-1.62-.79A1.51,1.51,0,0,1,285.2,82a3.42,3.42,0,0,1-.36-1.87,3.19,3.19,0,0,1,.76-1.87,2.18,2.18,0,0,1,1.76-.83,8.86,8.86,0,0,1,3.39.57,5.1,5.1,0,0,1,2.16,1.66A6.52,6.52,0,0,1,294,82.16a12.48,12.48,0,0,1,.21,3l-.36,1.3a31.85,31.85,0,0,1,3.71-3.92,27.47,27.47,0,0,1,3.92-2.92,17.62,17.62,0,0,1,4.14-1.84,15.77,15.77,0,0,1,4.29-.61c2.69,0,4.73.63,6.12,1.87a7.61,7.61,0,0,1,2.37,5.26,19.45,19.45,0,0,1-1.22,7.85l-3.89,12.09c-.77,2.31-.95,3.9-.54,4.79s1.41,1.33,3,1.33a1.42,1.42,0,0,1,1.4.83,3.24,3.24,0,0,1-.75,3.75A3.31,3.31,0,0,1,314,115.78Z"/><path class="cls-2" d="M314.07,115.78a1.84,1.84,0,0,1-1.8-.82,2.46,2.46,0,0,1-.11-1.88,4.15,4.15,0,0,1,1.27-1.87,3.35,3.35,0,0,1,2.3-.83,24.05,24.05,0,0,0,7.42-1.29,35.48,35.48,0,0,0,7.84-3.75,1.35,1.35,0,0,1,1.52-.18,3,3,0,0,1,1.15,1.26,3.51,3.51,0,0,1,.39,1.77,1.51,1.51,0,0,1-.75,1.33,44.17,44.17,0,0,1-7,3.64,36.44,36.44,0,0,1-6.55,2A29.31,29.31,0,0,1,314.07,115.78Z"/><path class="cls-2" d="M330.85,105.85a30.41,30.41,0,0,0,4.64-2.88,37,37,0,0,0,4-3.46,27.39,27.39,0,0,0,3.85-3.92A20.08,20.08,0,0,0,346,91.27a10.55,10.55,0,0,0,1-4.21,4.65,4.65,0,0,0-.87-3.06,3.42,3.42,0,0,0-2.8-1,1.57,1.57,0,0,1-1.48-.86,3.51,3.51,0,0,1-.36-2,3.34,3.34,0,0,1,.9-2,3,3,0,0,1,2.31-.87,9.52,9.52,0,0,1,4.78,1.12,7.37,7.37,0,0,1,3,3,9.22,9.22,0,0,1,1,4.36,16.13,16.13,0,0,1-1.33,6.3A26.52,26.52,0,0,1,348.49,98a41.79,41.79,0,0,1-5.26,5.5,35.34,35.34,0,0,1-4.78,3.75c-1.76,1.15-3.54,2.21-5.37,3.17Z"/><path class="cls-2" d="M343.38,115.86a17.07,17.07,0,0,1-5.76-.9,13,13,0,0,1-4.36-2.56,15.11,15.11,0,0,1-3.06-3.85,18.22,18.22,0,0,1-1.8-4.75,24,24,0,0,1-.57-5.22,26.31,26.31,0,0,1,.72-6,28.6,28.6,0,0,1,2.05-5.83A19.68,19.68,0,0,1,334,81.8a14.51,14.51,0,0,1,4.71-3.38,14.35,14.35,0,0,1,6-1.23,1,1,0,0,1,1.05.87,4,4,0,0,1,0,2,5.51,5.51,0,0,1-.87,2,1.78,1.78,0,0,1-1.47.86,5.51,5.51,0,0,0-3.67,1.41A12.3,12.3,0,0,0,336.83,88a22.52,22.52,0,0,0-2.6,10.26,18,18,0,0,0,.54,4.39,11,11,0,0,0,1.77,3.85,8.61,8.61,0,0,0,3.24,2.7,10.92,10.92,0,0,0,5,1,17.1,17.1,0,0,0,8-2.12,29,29,0,0,0,7.77-6.23,43.78,43.78,0,0,0,6.7-10,1.32,1.32,0,0,1,1.26-.54,2.88,2.88,0,0,1,1.62.58c.48.36.55.92.22,1.69a49.3,49.3,0,0,1-5.48,9.47,38.64,38.64,0,0,1-6.66,7,27.17,27.17,0,0,1-7.3,4.32A20.78,20.78,0,0,1,343.38,115.86Z"/><path class="cls-2" d="M368.43,115.71q-3.89,0-5.5-1.8a6.54,6.54,0,0,1-1.52-4.82,28,28,0,0,1,1.26-6.84l5.84-17.93h-5.69a1.07,1.07,0,0,1-1.08-.72,3.73,3.73,0,0,1,.07-2.16A5.1,5.1,0,0,1,363,79.28a2.13,2.13,0,0,1,1.51-.72h5.91L375,64.3a3.18,3.18,0,0,1,1.11-1.87,4.07,4.07,0,0,1,2.13-.43c1.48,0,2.43.23,2.84.68a2.08,2.08,0,0,1,.11,2.13l-4.47,13.75h9.08a1.14,1.14,0,0,1,1.11.68,3.33,3.33,0,0,1-.11,2.2,4.76,4.76,0,0,1-1.08,2.12,2.07,2.07,0,0,1-1.51.76h-9.29l-6.84,21a6.7,6.7,0,0,0-.39,3.78,1.77,1.77,0,0,0,1.91,1.26,5.89,5.89,0,0,0,3.88-1.44,21.16,21.16,0,0,0,3-3,2,2,0,0,1,1.18-.86,2.25,2.25,0,0,1,1.84.5c.81.48,1.25,1,1.3,1.44a2.64,2.64,0,0,1-.37,1.51,18.89,18.89,0,0,1-2.48,3.17,13.66,13.66,0,0,1-4,2.88A12.3,12.3,0,0,1,368.43,115.71Z"/><path class="cls-2" d="M428.48,115.93a27.05,27.05,0,0,1-5-.47,32.56,32.56,0,0,1-4.76-1.26,22.07,22.07,0,0,1-4.06-1.87,14.07,14.07,0,0,1-3-2.38,2.72,2.72,0,0,1-.86-2,3.64,3.64,0,0,1,1-2.12,2.45,2.45,0,0,1,1.69-.87,3.24,3.24,0,0,1,1.91.87,19.56,19.56,0,0,0,3.67,2.12,19.21,19.21,0,0,0,4.39,1.33,27.92,27.92,0,0,0,5,.43,22.42,22.42,0,0,0,7.7-1.22,16.13,16.13,0,0,0,5.73-3.46,14.42,14.42,0,0,0,3.53-5.32,20,20,0,0,0,.5-12A25.72,25.72,0,0,0,444,82.74a40.86,40.86,0,0,0-3-4.94c-1.17-1.65-2.47-3.35-3.88-5.11s-2.95-3.61-4.58-5.58q-6.25,10-11.26,17.53T412.1,97.5a83.2,83.2,0,0,1-7.77,8.82,37.62,37.62,0,0,1-7.06,5.47,24.51,24.51,0,0,1-7,2.77,35.69,35.69,0,0,1-7.7.79c-1,0-1.64-.26-1.88-.79a3.88,3.88,0,0,1,.15-2.52,3.18,3.18,0,0,1,1.19-1.87,3.71,3.71,0,0,1,2.19-.58,20.85,20.85,0,0,0,5.11-.61,18.66,18.66,0,0,0,4.86-2,27.6,27.6,0,0,0,5-3.85,71.13,71.13,0,0,0,5.58-6q3-3.6,6.58-8.6t7.89-11.59q4.27-6.59,9.61-15a33.1,33.1,0,0,1-2-3.35,28.84,28.84,0,0,1-1.55-3.42,23.77,23.77,0,0,1-1-3.46,17.58,17.58,0,0,1-.36-3.6A13.11,13.11,0,0,1,425.24,42,10.58,10.58,0,0,1,429,37.81a10,10,0,0,1,5.48-1.51,8.69,8.69,0,0,1,6.26,2.34,8.13,8.13,0,0,1,2.45,6.15,15,15,0,0,1-.72,4.43,32,32,0,0,1-2.27,5.29q-1.55,3-4.14,7.06c1,1.25,2,2.6,3.21,4.07s2.41,3,3.7,4.68,2.53,3.37,3.71,5.14a60.61,60.61,0,0,1,3.24,5.48,31.66,31.66,0,0,1,2.34,5.68,20.1,20.1,0,0,1,.86,5.84,25.76,25.76,0,0,1-1.69,9.54,21,21,0,0,1-12.6,12.24A29.8,29.8,0,0,1,428.48,115.93Zm4.11-59.76q1.73-2.81,2.73-4.83a18.11,18.11,0,0,0,1.4-3.56,11,11,0,0,0,.4-2.77,3.22,3.22,0,0,0-.83-2.31,2.83,2.83,0,0,0-2.12-.86,3.69,3.69,0,0,0-2.23.68,4.23,4.23,0,0,0-1.44,2,9,9,0,0,0-.51,3.2,12.86,12.86,0,0,0,.33,2.88,14.24,14.24,0,0,0,.93,2.81C431.66,54.34,432.1,55.26,432.59,56.17Z"/><path class="cls-2" d="M473,115.78a13.46,13.46,0,0,1-6-1.22,8.76,8.76,0,0,1-3.78-3.46,10.8,10.8,0,0,1-1.36-5.29A19.78,19.78,0,0,1,463,99.08l4.82-14.76H462.1A1.08,1.08,0,0,1,461,83.6a3.75,3.75,0,0,1,.08-2.16,5,5,0,0,1,1.15-2.16,2.07,2.07,0,0,1,1.44-.72h6l4.61-14.26a3.24,3.24,0,0,1,1.12-1.87,4,4,0,0,1,2.12-.43c1.49,0,2.44.23,2.85.68a2.08,2.08,0,0,1,.1,2.13L476,78.56h9.07a1.15,1.15,0,0,1,1.12.68,3.39,3.39,0,0,1-.11,2.2A4.76,4.76,0,0,1,485,83.56a2.07,2.07,0,0,1-1.51.76H474.2l-5,15.48a14.71,14.71,0,0,0-.86,4.61,6.78,6.78,0,0,0,.75,3.35,4.71,4.71,0,0,0,2.2,2,8.4,8.4,0,0,0,3.45.64,1.44,1.44,0,0,1,1.41.83,3.23,3.23,0,0,1,.25,1.87,3.16,3.16,0,0,1-1,1.88A3.28,3.28,0,0,1,473,115.78Z"/><path class="cls-2" d="M473.19,115.78a1.56,1.56,0,0,1-1.47-.82,2.72,2.72,0,0,1-.29-1.88,3.39,3.39,0,0,1,1-1.87,3.31,3.31,0,0,1,2.38-.83,9.75,9.75,0,0,0,3.78-.79,15.18,15.18,0,0,0,3.78-2.34,20.17,20.17,0,0,0,3.45-3.71,27.46,27.46,0,0,0,2.81-4.82c.24-.72.66-1.07,1.26-1a2.3,2.3,0,0,1,1.59.72,1.61,1.61,0,0,1,.39,1.69,27.85,27.85,0,0,1-3.31,6.59,24,24,0,0,1-4.46,4.93,19.17,19.17,0,0,1-5.26,3.09A15.73,15.73,0,0,1,473.19,115.78Z"/><path class="cls-2" d="M501.92,115.93a14.79,14.79,0,0,1-7.56-1.8,11.41,11.41,0,0,1-4.64-5,16.26,16.26,0,0,1-1.55-7.23,26.36,26.36,0,0,1,1.37-8.1,28.88,28.88,0,0,1,4.06-8.07,21.57,21.57,0,0,1,6.77-6.15,18.37,18.37,0,0,1,9.47-2.38,15.45,15.45,0,0,1,7.52,1.69A11,11,0,0,1,522,83.64a15.52,15.52,0,0,1,1.55,7.09,27,27,0,0,1-.83,6.3,31.3,31.3,0,0,1-2.52,6.77,25.5,25.5,0,0,1-4.28,6.08,20.27,20.27,0,0,1-6.09,4.39A18.07,18.07,0,0,1,501.92,115.93Zm.72-5.76a10.56,10.56,0,0,0,6.19-1.87,16.29,16.29,0,0,0,4.47-4.79A25.14,25.14,0,0,0,516,97.39a21.49,21.49,0,0,0,.94-5.94,10.48,10.48,0,0,0-.94-4.68,6.51,6.51,0,0,0-2.66-2.85,8.33,8.33,0,0,0-4.11-1,11,11,0,0,0-6.33,1.84,15.84,15.84,0,0,0-4.58,4.71,24.09,24.09,0,0,0-2.77,6,20.84,20.84,0,0,0-.93,5.83,10.74,10.74,0,0,0,1,4.79,6.71,6.71,0,0,0,2.77,3A8.59,8.59,0,0,0,502.64,110.17Z"/><path class="cls-2" d="M524.81,87.27a9,9,0,0,1-2.44-.39,15.35,15.35,0,0,1-2.63-1,13.83,13.83,0,0,1-2.2-1.37,2.15,2.15,0,0,1-.79-1.44,4.35,4.35,0,0,1,.11-1.83,2.65,2.65,0,0,1,.75-1.33.84.84,0,0,1,1.16.07,10.67,10.67,0,0,0,3.38,1.83,9.88,9.88,0,0,0,2.66.4,8.25,8.25,0,0,0,3.57-.76,34.48,34.48,0,0,0,3.13-1.65,29.87,29.87,0,0,1,3.13-1.62,8.52,8.52,0,0,1,3.49-.72,1.64,1.64,0,0,1,1.55.83,3.34,3.34,0,0,1-.36,3.74,2.33,2.33,0,0,1-1.9.83,6.22,6.22,0,0,0-2.74.65c-.91.43-1.89,1-2.92,1.54a23.55,23.55,0,0,1-3.27,1.59A10,10,0,0,1,524.81,87.27Z"/><path class="cls-2" d="M532.74,115.64a4.64,4.64,0,0,1-2.13-.5c-.65-.34-.83-1-.54-1.88l8.86-27.36a3.7,3.7,0,0,0,.11-2.3c-.22-.53-.74-.79-1.55-.79a1.5,1.5,0,0,1-1.44-.83,3.42,3.42,0,0,1-.36-1.87,3.28,3.28,0,0,1,.72-1.87,2.16,2.16,0,0,1,1.8-.83,8.43,8.43,0,0,1,3.45.61,4.8,4.8,0,0,1,2.09,1.69,6.94,6.94,0,0,1,1,2.45A11.4,11.4,0,0,1,545,85l-.44,1.22a36.1,36.1,0,0,1,3.17-3.89A21.6,21.6,0,0,1,551,79.5a13.86,13.86,0,0,1,3.24-1.73,8.92,8.92,0,0,1,3.1-.58,2,2,0,0,1,1.87.87,2.63,2.63,0,0,1,.22,2,4.16,4.16,0,0,1-1.23,2,3.37,3.37,0,0,1-2.37.86,6.92,6.92,0,0,0-3.53,1.19,19,19,0,0,0-4,3.42,36.43,36.43,0,0,0-4,5.33,46.63,46.63,0,0,0-3.53,6.84l-4.54,14a2.42,2.42,0,0,1-1,1.4A4.78,4.78,0,0,1,532.74,115.64Z"/><path class="cls-2" d="M564.34,99.58A14.38,14.38,0,0,1,559.59,98a9.26,9.26,0,0,1-3.38-3.17,11.47,11.47,0,0,1-1.62-5.15,23.58,23.58,0,0,1,.61-7.38l2.16-5.11a5.68,5.68,0,0,1,2.84.61c.7.41.88,1.29.54,2.63a41.37,41.37,0,0,0-.86,7.2,9.08,9.08,0,0,0,.75,4.11,4.26,4.26,0,0,0,2.06,2,10.19,10.19,0,0,0,2.95.79,1.39,1.39,0,0,1,1.22.94,3.56,3.56,0,0,1,.22,1.87,3.06,3.06,0,0,1-.83,1.73A2,2,0,0,1,564.34,99.58Z"/><path class="cls-2" d="M575.72,115.86a13.71,13.71,0,0,1-7.09-1.8,12.44,12.44,0,0,1-4.79-5.15,16.84,16.84,0,0,1-1.73-7.81,31.61,31.61,0,0,1,1.08-7.92,28.36,28.36,0,0,1,3.28-7.78,18.73,18.73,0,0,1,5.61-5.9,14.26,14.26,0,0,1,8.17-2.31,10.24,10.24,0,0,1,3.5.58,8.1,8.1,0,0,1,4.68,4.17,7.61,7.61,0,0,1,.68,3.24,11.65,11.65,0,0,1-2.27,7.2,16.73,16.73,0,0,1-6,4.9,25.48,25.48,0,0,1-8,2.48,31.23,31.23,0,0,1-8.35.11l.21-5a19.92,19.92,0,0,0,5.33.18,22.25,22.25,0,0,0,5.9-1.29,13.71,13.71,0,0,0,4.79-2.85,5.88,5.88,0,0,0,1.91-4.46,3.71,3.71,0,0,0-.83-2.7,3.61,3.61,0,0,0-2.63-.83,6.77,6.77,0,0,0-4.57,1.73,14.47,14.47,0,0,0-3.35,4.46,26.17,26.17,0,0,0-2,5.69,24.68,24.68,0,0,0-.68,5.47,14.34,14.34,0,0,0,.86,5.22,6.8,6.8,0,0,0,2.77,3.39A9.11,9.11,0,0,0,577,110.1a9.44,9.44,0,0,0,3.53-.69,14,14,0,0,0,3.35-1.91c1.08-.81,2.12-1.67,3.13-2.59a2.26,2.26,0,0,1,2-.75,3.27,3.27,0,0,1,1.72,1,3.33,3.33,0,0,1,1.12,1.83,2.08,2.08,0,0,1-.83,1.91,28.24,28.24,0,0,1-4.79,4,16.61,16.61,0,0,1-5,2.27A21.19,21.19,0,0,1,575.72,115.86Z"/></svg>